<svg width="22" height="22" viewBox="0 0 22 22" fill="none" xmlns="http://www.w3.org/2000/svg">
<g id="fluent-mdl2:teeth" clip-path="url(#clip0_244_514)">
<path id="Vector" d="M10.9997 5.5C11.501 5.5 11.9737 5.42839 12.4177 5.28516C12.8617 5.14193 13.3057 4.98438 13.7497 4.8125C14.1937 4.64062 14.6342 4.48307 15.071 4.33984C15.5078 4.19661 15.9841 4.125 16.4997 4.125V5.5C16.1846 5.5 15.8838 5.53223 15.5974 5.59668C15.3109 5.66113 15.0316 5.74707 14.7595 5.85449C14.4873 5.96191 14.208 6.07292 13.9216 6.1875C13.6351 6.30208 13.3451 6.41309 13.0515 6.52051C12.7578 6.62793 12.4392 6.71029 12.0954 6.76758C11.7517 6.82487 11.3864 6.86068 10.9997 6.875C10.6058 6.875 10.2406 6.84277 9.90401 6.77832C9.56742 6.71387 9.24873 6.62793 8.94795 6.52051C8.64717 6.41309 8.36071 6.30208 8.08858 6.1875C7.81644 6.07292 7.53715 5.96191 7.25069 5.85449C6.96423 5.74707 6.68135 5.66471 6.40206 5.60742C6.12276 5.55013 5.82198 5.51432 5.49971 5.5V4.125C5.99385 4.125 6.46651 4.19661 6.91768 4.33984C7.36885 4.48307 7.81286 4.64062 8.24971 4.8125C8.68656 4.98438 9.13057 5.14193 9.58174 5.28516C10.0329 5.42839 10.5056 5.5 10.9997 5.5ZM21.9997 6.21973C21.9997 7.4873 21.9066 8.77637 21.7204 10.0869C21.5342 11.3975 21.2621 12.6973 20.904 13.9863C20.5459 15.2754 20.0948 16.5251 19.5505 17.7354C19.0062 18.9456 18.3868 20.0879 17.6921 21.1621C17.5202 21.4199 17.3018 21.624 17.0368 21.7744C16.7718 21.9248 16.4818 22 16.1667 22C15.7728 22 15.4183 21.889 15.1032 21.667C14.7881 21.445 14.5697 21.1442 14.448 20.7646L12.5358 15.0498C12.2852 15.0785 12.031 15.0964 11.7731 15.1035C11.5153 15.1107 11.2575 15.1178 10.9997 15.125C10.7419 15.125 10.4841 15.1214 10.2263 15.1143C9.96846 15.1071 9.71423 15.0856 9.46358 15.0498L7.55147 20.7646C7.42972 21.137 7.2113 21.4342 6.8962 21.6562C6.58109 21.8783 6.2266 21.9928 5.83272 22C5.51762 22 5.22758 21.9248 4.9626 21.7744C4.69763 21.624 4.4792 21.4199 4.30733 21.1621C3.60551 20.0951 2.98604 18.9564 2.44893 17.7461C1.91182 16.5358 1.46423 15.2861 1.10616 13.9971C0.748085 12.708 0.472368 11.4082 0.279009 10.0977C0.0856498 8.78711 -0.0074492 7.49447 -0.000287737 6.21973C-0.000287737 5.41764 0.121457 4.64421 0.364947 3.89941C0.608436 3.15462 0.962928 2.49219 1.42842 1.91211C1.89392 1.33203 2.46683 0.870117 3.14717 0.526367C3.82751 0.182617 4.60453 0.00716146 5.47823 0C5.98669 0 6.46293 0.0716146 6.90694 0.214844C7.35095 0.358073 7.79496 0.515625 8.23897 0.6875C8.68298 0.859375 9.12341 1.01693 9.56026 1.16016C9.99711 1.30339 10.4769 1.375 10.9997 1.375C11.5082 1.375 11.9844 1.30339 12.4284 1.16016C12.8724 1.01693 13.3164 0.859375 13.7605 0.6875C14.2045 0.515625 14.6449 0.358073 15.0817 0.214844C15.5186 0.0716146 15.9984 0 16.5212 0C17.3949 0 18.1719 0.171875 18.8523 0.515625C19.5326 0.859375 20.1055 1.32129 20.571 1.90137C21.0365 2.48145 21.391 3.14388 21.6345 3.88867C21.878 4.63346 21.9997 5.41048 21.9997 6.21973ZM20.6247 6.24121C20.6247 5.5752 20.5352 4.94857 20.3562 4.36133C20.1771 3.77409 19.9086 3.25846 19.5505 2.81445C19.1924 2.37044 18.7412 2.01953 18.197 1.76172C17.6527 1.50391 17.0261 1.375 16.3171 1.375C15.9017 1.375 15.5043 1.44661 15.1247 1.58984C14.7452 1.73307 14.3441 1.89062 13.9216 2.0625C13.4991 2.23438 13.0551 2.39193 12.5896 2.53516C12.1241 2.67839 11.5941 2.75 10.9997 2.75C10.4053 2.75 9.87536 2.67839 9.40987 2.53516C8.94437 2.39193 8.50036 2.23438 8.07784 2.0625C7.65531 1.89062 7.24711 1.73307 6.85323 1.58984C6.45935 1.44661 6.0225 1.375 5.54268 1.375C4.84802 1.375 4.2393 1.51107 3.71651 1.7832C3.19372 2.05534 2.76045 2.41699 2.4167 2.86816C2.07295 3.31934 1.81156 3.83496 1.63252 4.41504C1.45349 4.99512 1.36755 5.60384 1.37471 6.24121C1.37471 6.94303 1.4141 7.69857 1.49288 8.50781C1.57165 9.31706 1.6934 10.1549 1.85811 11.0215C2.02282 11.888 2.21976 12.751 2.44893 13.6104C2.6781 14.4697 2.94665 15.3148 3.25459 16.1455C3.56254 16.9762 3.90271 17.7497 4.2751 18.4658C4.6475 19.182 5.04854 19.8337 5.47823 20.4209C5.58565 20.557 5.72172 20.625 5.88643 20.625C5.97237 20.625 6.08337 20.4961 6.21944 20.2383C6.35551 19.9805 6.49874 19.6439 6.64913 19.2285C6.79952 18.8132 6.96065 18.362 7.13252 17.875C7.3044 17.388 7.45837 16.9118 7.59444 16.4463C7.73051 15.9808 7.86299 15.5583 7.9919 15.1787C8.12081 14.7992 8.20674 14.5234 8.24971 14.3516C8.307 14.1654 8.41442 14.0042 8.57198 13.8682C8.72953 13.7321 8.91573 13.6605 9.13057 13.6533C9.44567 13.6533 9.7572 13.6676 10.0651 13.6963C10.3731 13.7249 10.6846 13.7428 10.9997 13.75C11.3148 13.75 11.6263 13.7357 11.9343 13.707C12.2422 13.6784 12.5537 13.6605 12.8689 13.6533C13.0765 13.6533 13.2592 13.7214 13.4167 13.8574C13.5743 13.9935 13.6853 14.1582 13.7497 14.3516C13.807 14.5234 13.8929 14.7992 14.0075 15.1787C14.1221 15.5583 14.251 15.9772 14.3942 16.4355C14.5375 16.8939 14.695 17.3737 14.8669 17.875C15.0388 18.3763 15.1963 18.8275 15.3396 19.2285C15.4828 19.6296 15.6296 19.9626 15.78 20.2275C15.9304 20.4925 16.0414 20.625 16.113 20.625C16.2777 20.625 16.4138 20.557 16.5212 20.4209C16.9509 19.848 17.3519 19.1963 17.7243 18.4658C18.0967 17.7354 18.4333 16.9619 18.7341 16.1455C19.0349 15.3291 19.3034 14.4876 19.5398 13.6211C19.7761 12.7546 19.973 11.8916 20.1306 11.0322C20.2881 10.1729 20.4099 9.33496 20.4958 8.51855C20.5817 7.70215 20.6247 6.94303 20.6247 6.24121Z" fill="black"/>
</g>
<defs>
<clipPath id="clip0_244_514">
<rect width="22" height="22" fill="white"/>
</clipPath>
</defs>
</svg>
